<svg width="573" height="423" viewBox="0 0 573 423" fill="none" xmlns="http://www.w3.org/2000/svg">
<g clip-path="url(#clip0_4_1409)">
<path d="M244.267 286.838C244.267 286.838 320.363 277.71 346.996 263.257C373.63 248.805 571.478 241.958 571.478 286.838C571.478 331.719 343.952 351.496 343.952 351.496L224.482 344.65L244.267 286.838Z" fill="#FBBEBE"/>
<path opacity="0.1" d="M244.267 286.838C244.267 286.838 320.363 277.71 346.996 263.257C373.63 248.805 571.478 241.958 571.478 286.838C571.478 331.719 343.952 351.496 343.952 351.496L224.482 344.65L244.267 286.838Z" fill="black"/>
<path d="M266.335 278.471L250.355 324.872L0 327.915V259.454C0 259.454 95.8805 237.394 171.976 284.556C171.976 284.556 261.769 273.907 266.335 278.471Z" fill="#416B66"/>
<path opacity="0.1" d="M266.335 278.396L250.355 324.798L0 327.84V259.379C0 259.379 95.8805 237.32 171.976 284.482C171.976 284.482 261.769 273.832 266.335 278.396Z" fill="black"/>
<path d="M552.566 259.074C552.566 261.666 546.75 263.591 546.178 266.092C545.611 268.572 549.067 272.344 547.973 274.713C546.843 277.136 545.508 279.457 543.982 281.652C542.549 283.702 538.125 283.403 536.31 285.326C534.534 287.072 532.652 288.707 530.676 290.224C528.751 291.824 526.142 292.16 523.953 293.633C521.872 295.034 522.123 300.173 519.821 301.449C517.621 302.668 514.253 301.687 511.866 302.783C509.575 303.835 508.367 307.639 505.918 308.569C503.556 309.466 500.632 309.08 498.135 309.857C495.718 310.609 493.014 310.487 490.482 311.12C488.023 311.735 486.144 315.42 483.586 315.917C481.094 316.401 478.173 315.11 475.595 315.476C473.079 315.834 470.152 312.65 467.562 312.891C465.028 313.127 462.64 314.601 460.045 314.72C457.5 314.837 454.984 315.957 452.388 315.957C449.793 315.957 447.114 318.391 444.57 318.275C441.975 318.156 439.625 314.466 437.091 314.23C434.502 313.989 431.413 317.843 428.896 317.485C426.319 317.118 424.278 313.346 421.786 312.862C419.227 312.365 415.922 315.061 413.462 314.446C410.929 313.813 409.426 309.424 407.009 308.672C404.512 307.895 401.416 308.948 399.055 308.05C396.605 307.12 393.621 307.27 391.33 306.218C388.943 305.122 387.23 302.529 385.03 301.31C382.727 300.034 381.665 296.87 379.584 295.469C377.394 293.995 374.059 294.184 372.134 292.583C370.101 290.893 366.293 290.805 364.577 288.987C362.763 287.064 362.029 283.835 360.596 281.784C359.088 279.625 362.049 275.059 360.995 272.777C359.903 270.408 355.333 269.446 354.766 266.966C354.181 264.375 353.881 261.729 353.871 259.074C353.871 256.481 357.779 254.5 358.351 251.999C358.918 249.518 356.042 245.956 357.135 243.587C358.188 241.304 358.054 237.795 359.563 235.635C360.995 233.585 364.57 232.781 366.384 230.858C368.1 229.041 371.17 228.533 373.203 226.844C375.128 225.243 374.882 220.417 377.072 218.943C379.153 217.542 382.059 216.903 384.362 215.627C386.562 214.408 389.676 214.614 392.063 213.518C394.353 212.466 397.942 214.539 400.391 213.608C402.753 212.711 404.669 210.75 407.166 209.973C409.583 209.221 410.718 203.486 413.251 202.853C415.71 202.238 418.736 203.259 421.294 202.762C423.786 202.278 427.14 206.803 429.717 206.436C432.234 206.078 434.117 200.037 436.706 199.796C439.24 199.56 442.097 202.689 444.692 202.57C447.237 202.453 449.792 204.287 452.388 204.287C454.984 204.287 457.57 201.771 460.114 201.887C462.71 202.006 464.998 205.331 467.532 205.567C470.121 205.808 473.3 200.751 475.817 201.109C478.394 201.476 480.386 205.385 482.878 205.869C485.437 206.366 488.642 203.939 491.102 204.554C493.634 205.187 495.158 209.342 497.575 210.094C500.072 210.871 501.611 213.803 503.973 214.7C506.422 215.63 510.972 211.277 513.264 212.329C515.65 213.425 517.712 215.321 519.912 216.54C522.215 217.816 525.875 217.174 527.957 218.576C530.146 220.049 530.684 224.004 532.61 225.605C534.642 227.295 537.995 227.804 539.71 229.622C541.525 231.545 541.777 234.991 543.209 237.041C544.718 239.201 544.67 242.193 545.724 244.475C546.817 246.844 549.734 248.635 550.301 251.115C550.873 253.616 552.566 256.482 552.566 259.074Z" fill="#3F3D56"/>
<path d="M278.51 306.616C278.51 306.616 364.498 262.497 420.048 279.232C475.598 295.967 553.215 267.061 562.347 276.95C571.478 286.838 584.414 393.333 474.837 399.419C365.259 405.504 271.661 381.163 271.661 381.163L278.51 306.616Z" fill="#FBBEBE"/>
<path d="M258.26 301.917C258.26 301.917 292.207 299.77 290.685 311.941C289.163 324.112 287.641 418.436 278.51 420.718C269.379 423 197.088 423 167.41 423H0V277.168C0 277.168 118.709 270.103 178.064 299.77C178.064 299.77 249.424 298.74 258.26 301.917Z" fill="#416B66"/>
<path d="M417.294 73.8159C414.05 73.9991 410.921 75.0819 408.259 76.9428C405.596 78.8038 403.505 81.3695 402.219 84.3521C398.45 93.4603 403.303 104.159 410.589 110.801C417.875 117.443 427.234 121.239 435.737 126.229C447.159 132.932 457.422 142.236 463.137 154.18C468.852 166.123 469.46 180.918 462.742 192.328C456.507 202.918 445.17 209.257 434.357 215.102" stroke="#3F3D56" stroke-miterlimit="10"/>
<path d="M447.732 18.2864C444.488 18.4695 441.36 19.5523 438.697 21.4133C436.034 23.2743 433.943 25.8399 432.657 28.8225C428.888 37.9307 433.741 48.6297 441.027 55.2715C448.313 61.9134 457.672 65.7098 466.176 70.6999C477.597 77.4024 487.86 86.7067 493.575 98.6502C499.29 110.594 499.898 125.388 493.18 136.798C486.945 147.389 475.608 153.727 464.795 159.573" stroke="#3F3D56" stroke-miterlimit="10"/>
<path d="M547.81 31.0578C545.133 29.2176 541.996 28.1592 538.751 28.0014C535.506 27.8435 532.282 28.5924 529.438 30.164C520.88 35.0594 518.166 46.4894 519.859 56.1998C521.553 65.9101 526.628 74.6394 530.296 83.7889C535.223 96.0782 537.64 109.716 534.845 122.657C532.05 135.598 523.47 147.669 511.171 152.58C499.755 157.138 486.909 155.212 474.779 153.218" stroke="#3F3D56" stroke-miterlimit="10"/>
<path d="M459.617 145.852C469.704 145.852 477.88 141.882 477.88 136.985C477.88 132.087 469.704 128.117 459.617 128.117C449.531 128.117 441.354 132.087 441.354 136.985C441.354 141.882 449.531 145.852 459.617 145.852Z" fill="#416B66"/>
<path d="M457.335 144.331C467.421 144.331 475.598 140.361 475.598 135.463C475.598 130.566 467.421 126.596 457.335 126.596C447.248 126.596 439.072 130.566 439.072 135.463C439.072 140.361 447.248 144.331 457.335 144.331Z" stroke="#3F3D56" stroke-miterlimit="10"/>
<path d="M499.187 138.245C509.274 138.245 517.45 134.275 517.45 129.378C517.45 124.481 509.274 120.51 499.187 120.51C489.101 120.51 480.924 124.481 480.924 129.378C480.924 134.275 489.101 138.245 499.187 138.245Z" fill="#416B66"/>
<path d="M496.904 136.724C506.991 136.724 515.167 132.754 515.167 127.856C515.167 122.959 506.991 118.989 496.904 118.989C486.818 118.989 478.641 122.959 478.641 127.856C478.641 132.754 486.818 136.724 496.904 136.724Z" stroke="#3F3D56" stroke-miterlimit="10"/>
<path d="M505.275 171.715C515.361 171.715 523.538 167.745 523.538 162.848C523.538 157.951 515.361 153.98 505.275 153.98C495.189 153.98 487.012 157.951 487.012 162.848C487.012 167.745 495.189 171.715 505.275 171.715Z" fill="#416B66"/>
<path d="M502.992 170.194C513.078 170.194 521.255 166.224 521.255 161.326C521.255 156.429 513.078 152.459 502.992 152.459C492.906 152.459 484.729 156.429 484.729 161.326C484.729 166.224 492.906 170.194 502.992 170.194Z" stroke="#3F3D56" stroke-miterlimit="10"/>
<path d="M501.47 88.0404C511.556 88.0404 519.733 84.0703 519.733 79.173C519.733 74.2757 511.556 70.3057 501.47 70.3057C491.384 70.3057 483.207 74.2757 483.207 79.173C483.207 84.0703 491.384 88.0404 501.47 88.0404Z" fill="#416B66"/>
<path d="M499.187 86.519C509.274 86.519 517.45 82.5489 517.45 77.6516C517.45 72.7543 509.274 68.7843 499.187 68.7843C489.101 68.7843 480.924 72.7543 480.924 77.6516C480.924 82.5489 489.101 86.519 499.187 86.519Z" stroke="#3F3D56" stroke-miterlimit="10"/>
<path d="M455.813 82.7157C465.899 82.7157 474.076 78.7456 474.076 73.8483C474.076 68.951 465.899 64.981 455.813 64.981C445.726 64.981 437.55 68.951 437.55 73.8483C437.55 78.7456 445.726 82.7157 455.813 82.7157Z" fill="#416B66"/>
<path d="M453.53 81.1943C463.616 81.1943 471.793 77.2242 471.793 72.3269C471.793 67.4296 463.616 63.4596 453.53 63.4596C443.444 63.4596 435.267 67.4296 435.267 72.3269C435.267 77.2242 443.444 81.1943 453.53 81.1943Z" stroke="#3F3D56" stroke-miterlimit="10"/>
<path d="M476.359 63.6987C486.445 63.6987 494.622 59.7286 494.622 54.8313C494.622 49.934 486.445 45.964 476.359 45.964C466.272 45.964 458.096 49.934 458.096 54.8313C458.096 59.7286 466.272 63.6987 476.359 63.6987Z" fill="#416B66"/>
<path d="M474.076 62.1773C484.162 62.1773 492.339 58.2073 492.339 53.31C492.339 48.4127 484.162 44.4426 474.076 44.4426C463.989 44.4426 455.813 48.4127 455.813 53.31C455.813 58.2073 463.989 62.1773 474.076 62.1773Z" stroke="#3F3D56" stroke-miterlimit="10"/>
<path d="M521.255 67.502C531.341 67.502 539.518 63.532 539.518 58.6347C539.518 53.7374 531.341 49.7673 521.255 49.7673C511.169 49.7673 502.992 53.7374 502.992 58.6347C502.992 63.532 511.169 67.502 521.255 67.502Z" fill="#416B66"/>
<path d="M518.972 65.9807C529.059 65.9807 537.235 62.0106 537.235 57.1133C537.235 52.216 529.059 48.246 518.972 48.246C508.886 48.246 500.709 52.216 500.709 57.1133C500.709 62.0106 508.886 65.9807 518.972 65.9807Z" stroke="#3F3D56" stroke-miterlimit="10"/>
<path d="M554.737 92.6044C564.823 92.6044 573 88.6344 573 83.7371C573 78.8398 564.823 74.8698 554.737 74.8698C544.651 74.8698 536.474 78.8398 536.474 83.7371C536.474 88.6344 544.651 92.6044 554.737 92.6044Z" fill="#416B66"/>
<path d="M552.454 91.0831C562.541 91.0831 570.717 87.113 570.717 82.2157C570.717 77.3184 562.541 73.3484 552.454 73.3484C542.368 73.3484 534.191 77.3184 534.191 82.2157C534.191 87.113 542.368 91.0831 552.454 91.0831Z" stroke="#3F3D56" stroke-miterlimit="10"/>
<path d="M436.789 48.4851C446.875 48.4851 455.052 44.515 455.052 39.6177C455.052 34.7204 446.875 30.7504 436.789 30.7504C426.702 30.7504 418.526 34.7204 418.526 39.6177C418.526 44.515 426.702 48.4851 436.789 48.4851Z" fill="#416B66"/>
<path d="M434.506 46.9637C444.592 46.9637 452.769 42.9937 452.769 38.0964C452.769 33.1991 444.592 29.229 434.506 29.229C424.42 29.229 416.243 33.1991 416.243 38.0964C416.243 42.9937 424.42 46.9637 434.506 46.9637Z" stroke="#3F3D56" stroke-miterlimit="10"/>
<path d="M448.203 19.5793C458.289 19.5793 466.466 15.6093 466.466 10.712C466.466 5.81465 458.289 1.8446 448.203 1.8446C438.117 1.8446 429.94 5.81465 429.94 10.712C429.94 15.6093 438.117 19.5793 448.203 19.5793Z" fill="#416B66"/>
<path d="M445.92 18.0579C456.007 18.0579 464.183 14.0879 464.183 9.19059C464.183 4.29329 456.007 0.323242 445.92 0.323242C435.834 0.323242 427.657 4.29329 427.657 9.19059C427.657 14.0879 435.834 18.0579 445.92 18.0579Z" stroke="#3F3D56" stroke-miterlimit="10"/>
<path d="M553.976 40.8782C564.062 40.8782 572.239 36.9082 572.239 32.0109C572.239 27.1136 564.062 23.1436 553.976 23.1436C543.89 23.1436 535.713 27.1136 535.713 32.0109C535.713 36.9082 543.89 40.8782 553.976 40.8782Z" fill="#416B66"/>
<path d="M551.693 39.357C561.779 39.357 569.956 35.387 569.956 30.4897C569.956 25.5924 561.779 21.6223 551.693 21.6223C541.607 21.6223 533.43 25.5924 533.43 30.4897C533.43 35.387 541.607 39.357 551.693 39.357Z" stroke="#3F3D56" stroke-miterlimit="10"/>
<path d="M385.805 110.861C395.891 110.861 404.068 106.891 404.068 101.993C404.068 97.0961 395.891 93.1261 385.805 93.1261C375.718 93.1261 367.542 97.0961 367.542 101.993C367.542 106.891 375.718 110.861 385.805 110.861Z" fill="#416B66"/>
<path d="M383.522 109.339C393.608 109.339 401.785 105.369 401.785 100.472C401.785 95.5748 393.608 91.6047 383.522 91.6047C373.436 91.6047 365.259 95.5748 365.259 100.472C365.259 105.369 373.436 109.339 383.522 109.339Z" stroke="#3F3D56" stroke-miterlimit="10"/>
<path d="M448.964 106.297C459.05 106.297 467.227 102.327 467.227 97.4294C467.227 92.5321 459.05 88.562 448.964 88.562C438.878 88.562 430.701 92.5321 430.701 97.4294C430.701 102.327 438.878 106.297 448.964 106.297Z" fill="#416B66"/>
<path d="M446.681 104.775C456.768 104.775 464.944 100.805 464.944 95.908C464.944 91.0107 456.768 87.0406 446.681 87.0406C436.595 87.0406 428.418 91.0107 428.418 95.908C428.418 100.805 436.595 104.775 446.681 104.775Z" stroke="#3F3D56" stroke-miterlimit="10"/>
<path d="M531.908 113.143C541.995 113.143 550.171 109.173 550.171 104.275C550.171 99.3781 541.995 95.4081 531.908 95.4081C521.822 95.4081 513.646 99.3781 513.646 104.275C513.646 109.173 521.822 113.143 531.908 113.143Z" fill="#416B66"/>
<path d="M529.625 111.621C539.712 111.621 547.888 107.651 547.888 102.754C547.888 97.8568 539.712 93.8867 529.625 93.8867C519.539 93.8867 511.363 97.8568 511.363 102.754C511.363 107.651 519.539 111.621 529.625 111.621Z" stroke="#3F3D56" stroke-miterlimit="10"/>
<path d="M487.773 116.185C497.859 116.185 506.036 112.215 506.036 107.318C506.036 102.421 497.859 98.4508 487.773 98.4508C477.687 98.4508 469.51 102.421 469.51 107.318C469.51 112.215 477.687 116.185 487.773 116.185Z" fill="#416B66"/>
<path d="M485.49 114.664C495.576 114.664 503.753 110.694 503.753 105.797C503.753 100.899 495.576 96.9294 485.49 96.9294C475.404 96.9294 467.227 100.899 467.227 105.797C467.227 110.694 475.404 114.664 485.49 114.664Z" stroke="#3F3D56" stroke-miterlimit="10"/>
<path d="M490.817 40.1176C500.903 40.1176 509.08 36.1476 509.08 31.2503C509.08 26.353 500.903 22.3829 490.817 22.3829C480.73 22.3829 472.554 26.353 472.554 31.2503C472.554 36.1476 480.73 40.1176 490.817 40.1176Z" fill="#416B66"/>
<path d="M488.534 38.5963C498.62 38.5963 506.797 34.6262 506.797 29.7289C506.797 24.8316 498.62 20.8616 488.534 20.8616C478.448 20.8616 470.271 24.8316 470.271 29.7289C470.271 34.6262 478.448 38.5963 488.534 38.5963Z" stroke="#3F3D56" stroke-miterlimit="10"/>
<path d="M412.438 87.2797C422.525 87.2797 430.701 83.3097 430.701 78.4124C430.701 73.5151 422.525 69.545 412.438 69.545C402.352 69.545 394.175 73.5151 394.175 78.4124C394.175 83.3097 402.352 87.2797 412.438 87.2797Z" fill="#416B66"/>
<path d="M410.155 85.7584C420.242 85.7584 428.418 81.7883 428.418 76.891C428.418 71.9937 420.242 68.0237 410.155 68.0237C400.069 68.0237 391.892 71.9937 391.892 76.891C391.892 81.7883 400.069 85.7584 410.155 85.7584Z" stroke="#3F3D56" stroke-miterlimit="10"/>
<path d="M423.092 121.51C433.178 121.51 441.355 117.54 441.355 112.643C441.355 107.746 433.178 103.776 423.092 103.776C413.005 103.776 404.829 107.746 404.829 112.643C404.829 117.54 413.005 121.51 423.092 121.51Z" fill="#416B66"/>
<path d="M420.809 119.989C430.895 119.989 439.072 116.019 439.072 111.122C439.072 106.224 430.895 102.254 420.809 102.254C410.722 102.254 402.546 106.224 402.546 111.122C402.546 116.019 410.722 119.989 420.809 119.989Z" stroke="#3F3D56" stroke-miterlimit="10"/>
<g opacity="0.3">
<path d="M423.516 173.189C426.094 168.578 426.565 163.936 424.567 162.82C422.57 161.704 418.861 164.537 416.283 169.148C413.705 173.759 413.234 178.402 415.232 179.518C417.229 180.634 420.938 177.8 423.516 173.189Z" fill="#416B66"/>
<path d="M422.312 173.886C424.89 169.275 425.361 164.633 423.363 163.517C421.366 162.401 417.656 165.234 415.078 169.845C412.501 174.456 412.03 179.098 414.028 180.214C416.025 181.33 419.734 178.497 422.312 173.886Z" stroke="#3F3D56" stroke-miterlimit="10"/>
</g>
<g opacity="0.3">
<path d="M518.711 195.294C520.237 193.589 518.283 189.352 514.345 185.829C510.408 182.306 505.979 180.832 504.452 182.537C502.926 184.242 504.881 188.479 508.819 192.002C512.756 195.524 517.185 196.998 518.711 195.294Z" fill="#416B66"/>
<path d="M518.294 193.967C519.82 192.262 517.865 188.025 513.928 184.502C509.99 180.98 505.561 179.506 504.035 181.21C502.509 182.915 504.464 187.152 508.401 190.675C512.339 194.198 516.768 195.672 518.294 193.967Z" stroke="#3F3D56" stroke-miterlimit="10"/>
</g>
<g opacity="0.3">
<path d="M433.484 147.371C435.01 145.666 433.055 141.429 429.118 137.906C425.18 134.384 420.751 132.91 419.225 134.614C417.699 136.319 419.654 140.556 423.591 144.079C427.529 147.602 431.958 149.076 433.484 147.371Z" fill="#416B66"/>
<path d="M433.067 146.044C434.593 144.34 432.638 140.102 428.701 136.579C424.763 133.057 420.334 131.583 418.808 133.287C417.282 134.992 419.237 139.23 423.174 142.752C427.112 146.275 431.541 147.749 433.067 146.044Z" stroke="#3F3D56" stroke-miterlimit="10"/>
</g>
</g>
<defs>
<clipPath id="clip0_4_1409">
<rect width="573" height="423" fill="white"/>
</clipPath>
</defs>
</svg>
